<svg width="159" height="206" viewBox="0 0 159 206" fill="none" xmlns="http://www.w3.org/2000/svg">
<path d="M2 153.281V102.992H157V153.281C157 158.976 154.578 162.491 150.824 165.035C147.07 167.58 94.1524 197.632 88.0977 201.51C82.043 205.388 75.7461 204.176 71.3867 201.51C67.0273 198.844 13.7461 168.186 11.4454 166.853C9.14467 165.52 1.99998 161.642 2 153.281Z" fill="black" stroke="black" stroke-width="3"/>
<path d="M2 52.7034V102.992H157V52.7034C157 47.008 154.578 43.4938 150.824 40.9491C147.07 38.4044 94.1524 8.35223 88.0977 4.47454C82.043 0.596848 75.7461 1.80862 71.3867 4.47454C67.0273 7.14046 13.7461 37.7985 11.4454 39.1314C9.14467 40.4644 1.99998 44.3421 2 52.7034Z" fill="white" stroke="black" stroke-width="3"/>
<g clip-path="url(#clip0)">
<path d="M90.2765 157.607C90.1672 157.505 90.2037 157.476 90.1162 157.359C90.0288 157.242 90.0798 157.22 89.9268 157.095C89.7738 156.971 89.6937 156.949 89.6937 156.949C89.6937 156.949 89.5407 156.708 89.4096 156.767C89.2784 156.825 89.293 156.825 89.2275 156.789C89.1619 156.752 89.0016 156.949 88.9361 157.095C88.8705 157.242 88.8195 157.38 88.8414 157.585C88.8632 157.79 88.8851 158.06 88.8778 158.214C88.8705 158.367 88.5937 158.798 88.1347 159.208C87.6757 159.617 86.8889 160.274 86.6121 160.53C86.3353 160.786 86.0803 161.093 85.8617 161.341C85.6432 161.59 85.3226 161.597 84.9948 161.853C84.6669 162.109 84.0914 162.489 84.0258 162.598C83.9603 162.708 83.7854 162.708 83.5523 162.774C83.3192 162.84 82.4449 163.059 82.2482 163.095C82.0515 163.132 82.1754 163.176 82.0807 163.22C81.986 163.263 81.7091 163.22 81.68 163.263C81.6509 163.307 81.6363 163.41 81.4687 163.41C81.3012 163.41 81.1919 163.424 81.1919 163.424C81.1919 163.424 81.1555 163.271 81.2065 163.176C81.2575 163.081 81.3522 162.964 81.425 162.635C81.4979 162.306 81.5052 162.167 81.5052 161.97C81.5052 161.773 81.4032 161.663 81.3158 161.729C81.3158 161.729 81.3595 161.4 81.4469 161.239C81.5343 161.078 81.6145 161.035 81.5489 160.691C81.4834 160.348 81.4105 160.282 81.3231 160.128C81.2356 159.975 81.2065 159.778 80.9515 159.77C80.6965 159.763 80.7257 159.792 80.6164 159.683C80.5071 159.573 80.3541 159.58 80.3468 159.661C80.3395 159.741 80.3051 159.82 80.2594 159.763C80.2302 159.726 80.0554 159.346 79.7349 159.449C79.4143 159.551 79.4143 159.807 79.4143 159.807C79.4143 159.807 79.3123 159.873 79.2832 159.763C79.254 159.653 79.0719 159.69 79.0136 159.763C78.9553 159.836 78.9772 159.873 78.8388 159.894C78.7003 159.916 78.4162 160.143 78.3798 160.399C78.3433 160.654 78.1467 160.83 78.2195 161.093C78.2923 161.356 78.6056 161.787 78.6129 161.875C78.6202 161.963 78.6202 161.963 78.6202 161.963C78.6202 161.963 78.4526 161.955 78.4745 162.138C78.4963 162.321 78.5437 162.346 78.5582 162.5C78.5728 162.653 78.5874 162.737 78.6748 162.777C78.7622 162.818 78.7877 162.803 78.7877 162.803C78.7877 162.803 78.8242 163.055 78.9116 163.252C78.999 163.45 78.9881 163.442 79.0609 163.457C79.1338 163.472 79.0937 163.366 79.0937 163.366C79.0937 163.366 79.1957 163.494 79.1884 163.618C79.1811 163.742 79.1739 163.765 79.1739 163.765C79.1447 163.756 78.7853 163.717 78.6396 163.58C78.4939 163.444 78.4259 163.424 78.2414 163.483C78.0568 163.541 78.2608 163.58 77.61 163.395C76.9592 163.21 76.5609 163.356 76.3084 163.249C76.0558 163.142 75.9586 163.054 75.5896 162.859C75.2204 162.664 75.0164 162.674 74.4725 162.44C73.9285 162.206 73.8799 162.138 73.5594 161.836C73.2389 161.534 71.9761 160.988 71.6846 160.803C71.3932 160.618 71.3252 160.433 71.2184 160.355C71.1115 160.277 71.0435 160.355 70.9755 160.277C70.9076 160.199 70.5967 160.111 70.4996 159.624C70.4024 159.137 70.4413 159.01 70.3344 158.913C70.2276 158.815 70.0527 158.581 69.9556 158.542C69.8585 158.504 69.8002 158.513 69.8002 158.513C69.8002 158.513 69.5476 158.421 69.4893 158.547C69.4311 158.674 69.4456 158.718 69.4456 158.718C69.4456 158.718 69.3242 158.747 69.3145 158.849C69.3047 158.952 69.2076 159.02 69.2562 159.113C69.2562 159.113 69.1736 159.181 69.2125 159.303C69.2125 159.303 69.1153 159.356 69.1153 159.434C69.1153 159.434 68.8773 159.687 69.0862 159.912C69.295 160.136 69.3776 160.214 69.397 160.306C69.4164 160.399 69.4456 160.642 69.533 160.545C69.6204 160.448 69.8147 160.462 69.8293 160.482C69.8439 160.501 70.6112 161.144 70.6209 161.159C70.6307 161.173 70.5966 161.271 70.6501 161.329C70.7035 161.388 70.7764 161.373 70.7764 161.373C70.7764 161.373 71.7574 162.338 72.248 162.698C72.7386 163.059 73.0979 163.346 73.5108 163.449C73.9237 163.551 74.0159 163.59 74.3316 163.868C74.6473 164.145 75.3127 164.628 75.7012 164.784C76.0898 164.94 76.8134 165.091 76.9689 165.495C77.1243 165.899 77.2214 166.732 77.3428 167.005C77.4643 167.278 77.4934 167.317 77.4934 167.478C77.4934 167.639 77.644 168.121 77.6876 168.457C77.7314 168.793 78.0665 169.412 78.1491 169.753C78.2316 170.094 78.251 170.05 78.2559 170.226C78.2608 170.401 78.3093 170.786 78.4065 171.044C78.5036 171.302 78.4988 171.2 78.5133 171.434C78.5279 171.668 78.6008 171.614 78.5133 171.77C78.4259 171.926 78.4405 172.262 78.3628 172.511C78.285 172.759 78.3045 172.559 78.2462 172.876C78.1879 173.193 77.9208 173.758 77.8868 174.255C77.8868 174.255 77.7751 174.586 77.7945 174.864C77.8139 175.142 77.7993 175.059 77.7459 175.234C77.6925 175.41 77.6828 175.395 77.7216 175.614C77.7605 175.833 77.7896 175.882 77.7896 176.101C77.7896 176.321 77.8042 176.52 77.7896 176.598C77.775 176.676 77.8527 176.706 77.8527 176.706C77.8527 176.706 77.8673 177.246 77.8576 177.358C77.8479 177.47 77.7653 177.68 77.877 177.773C77.9887 177.865 77.9499 177.855 77.9499 177.855C77.9499 177.855 77.8721 178.23 77.9207 178.835C77.9693 179.439 78.3724 180.262 78.489 180.74C78.6055 181.217 78.6153 181.456 78.6832 181.787C78.7512 182.118 78.7755 182.289 78.7901 182.503C78.8046 182.718 78.7221 182.878 78.7318 182.995C78.7415 183.112 78.8192 183.312 78.8192 183.385C78.8192 183.458 78.6638 183.677 78.6444 183.911C78.6249 184.145 78.6443 184.579 78.7366 184.725C78.8289 184.871 78.8921 184.842 78.9212 184.847C78.9504 184.852 79.2126 184.769 79.198 184.915C79.1835 185.061 79.1155 185.31 79.3195 185.344C79.5234 185.378 79.81 185.305 79.878 185.305C79.946 185.305 80.0383 185.202 80.0286 185.183C80.0189 185.163 80.2957 185.319 80.2957 185.319C80.2957 185.319 80.3637 185.685 80.354 185.875C80.3443 186.065 80.3589 186.143 80.3977 186.152C80.4366 186.162 80.422 186.147 80.422 186.23C80.422 186.313 80.694 186.917 80.762 187.039C80.83 187.161 80.966 187.361 80.9077 186.688L80.9708 186.659C80.9708 186.659 81.0291 187.531 81.0388 187.838C81.0485 188.145 81.0922 189.534 81.3108 189.534C81.5294 189.534 81.6071 189.621 81.6216 189.3C81.6362 188.978 81.6216 188.057 81.6216 188.057C81.6216 188.057 81.7746 189.828 81.8621 189.901C81.9495 189.974 82.1899 189.938 82.219 189.77C82.2482 189.602 82.321 187.548 82.3065 186.781C82.2919 186.013 82.3065 185.714 82.3065 185.714L82.5396 185.685C82.5396 185.685 82.6926 185.816 82.7946 185.809C82.8966 185.802 82.8966 185.802 82.8966 185.802C82.8966 185.802 83.1589 186.116 83.5377 186.108C83.9165 186.101 84.3099 185.451 84.3026 185.18C84.2953 184.91 84.2808 184.727 84.1642 184.42C84.0476 184.113 84.0185 183.887 83.9748 183.594C83.9311 183.302 83.7344 183.339 83.7271 183.236C83.7198 183.134 83.8291 183.119 83.7926 182.886C83.7562 182.652 83.7198 182.491 83.8218 182.133C83.9238 181.775 83.9675 181.797 83.9456 181.555C83.9456 181.555 84.0501 180.866 84.2055 180.496C84.3609 180.126 84.3536 180.182 84.3937 179.966C84.4338 179.75 84.5722 179.312 84.503 178.921C84.4338 178.53 84.237 178.76 84.2953 178.099C84.3536 177.437 84.3415 177.037 84.3852 176.759C84.4289 176.481 84.5358 176.199 84.4775 175.858C84.4192 175.517 84.3269 175.322 84.3269 175.322C84.3269 175.322 84.8562 175.288 84.8951 175.541C84.934 175.794 84.9777 176.189 84.9777 176.311C84.9777 176.433 84.9485 176.91 84.9388 177.095C84.9291 177.28 84.8125 177.407 84.9388 177.529C85.0651 177.651 85.2982 177.621 85.3468 177.392C85.3953 177.163 85.3711 176.73 85.3711 176.398C85.3711 176.067 85.3759 175.926 85.3662 175.59C85.3565 175.254 85.3517 175.268 85.3225 175C85.2934 174.732 85.2594 174.479 85.1622 174.24C85.0651 174.001 85.0311 174.026 84.9777 174.026C84.9242 174.026 84.7737 174.123 84.7883 174.489C84.8028 174.854 84.798 174.932 84.798 174.932C84.798 174.932 84.3754 174.82 84.2297 174.81C84.2297 174.81 83.9626 174.211 83.9286 173.88C83.8946 173.548 83.8606 173.412 83.7975 173.261C83.7343 173.11 83.6906 172.827 83.642 172.559C83.5935 172.291 83.6226 172.374 83.4963 172.019C83.37 171.663 83.2972 171.522 83.2874 171.302C83.2777 171.083 83.472 170.981 83.3894 170.815C83.3069 170.649 83.3166 170.567 83.2874 170.43C83.2583 170.294 83.0932 169.388 83.1515 168.832C83.2097 168.277 83.3409 167.473 83.3263 166.917C83.3117 166.362 83.37 166.187 83.4137 165.88C83.4574 165.573 83.1587 165.12 84.0621 164.52C84.9655 163.921 85.2277 163.716 85.5265 163.336C85.8251 162.956 86.204 162.54 86.4808 162.401C86.7576 162.262 86.9106 162.167 87.0053 162.05C87.1 161.933 88.0253 161.217 88.5061 160.472C88.9869 159.726 89.1691 159.427 89.3366 159.229C89.5041 159.032 89.5624 158.776 89.7154 158.805C89.8685 158.835 90.0214 158.922 90.1016 158.762C90.1817 158.601 90.1307 158.601 90.0724 158.535C90.0142 158.469 90.1162 158.345 90.1671 158.162C90.2183 157.98 90.3858 157.709 90.2765 157.607ZM78.9261 162.874C78.9261 162.874 79.0183 162.937 79.0281 163.035C79.0378 163.132 79.0523 163.195 79.0523 163.195C79.0523 163.195 78.9552 163.074 78.9261 162.874ZM80.8057 186.927L80.5507 186.386C80.5507 186.386 80.507 186.262 80.4924 186.182C80.4778 186.101 80.5434 186.152 80.5507 186.065C80.558 185.977 80.5288 185.911 80.4924 185.845C80.456 185.78 80.4924 185.604 80.4924 185.604L80.7692 186.035C80.7692 186.035 80.7547 186.145 80.7619 186.306C80.7692 186.467 80.7765 186.511 80.8057 186.759C80.8348 187.007 80.8057 186.927 80.8057 186.927ZM80.6308 183.146C80.592 183.302 80.5726 183.4 80.5629 183.546C80.5532 183.692 80.4949 183.702 80.3589 183.741C80.2229 183.78 80.2035 183.643 80.2035 183.643L80.7474 180.642C80.7474 180.642 80.796 182.912 80.8252 182.971C80.8679 183.057 80.6697 182.99 80.6308 183.146ZM80.8203 178.498C80.8203 178.63 80.7134 178.669 80.694 178.937C80.6745 179.205 80.626 179.517 80.5726 179.897C80.5191 180.277 80.048 183.185 80.048 183.185C80.048 183.185 80.0334 183.12 80.0407 183.017C80.048 182.915 79.997 182.783 79.9096 182.564C79.8222 182.345 79.7056 182.023 79.7056 181.819C79.7056 181.614 79.6328 181.176 79.6473 180.81C79.6619 180.445 79.7858 180.006 79.8732 179.626C79.9606 179.246 79.8149 178.793 79.7202 178.391C79.6255 177.989 79.5745 177.814 79.5235 177.536C79.4725 177.259 79.6255 176.798 79.7858 176.425C79.9461 176.053 80.2884 175.629 80.4123 175.475C80.5361 175.322 80.5289 175.278 80.6527 175.329C80.7766 175.38 80.7911 175.446 80.8203 175.505C80.8494 175.563 80.8421 176.023 80.8421 176.023C80.8421 176.023 80.7037 176.213 80.6746 176.491C80.6455 176.769 80.8349 177.171 80.8567 177.383C80.8786 177.595 80.8203 178.367 80.8203 178.498ZM81.1214 162.796C81.1165 162.679 81.1165 162.625 81.1942 162.64C81.1942 162.64 81.2428 162.879 81.1845 162.913C81.1263 162.947 81.1263 162.913 81.1214 162.796ZM81.3375 187.643C81.3375 187.643 81.2282 185.875 81.2355 185.736L81.3375 185.75V187.643ZM81.9786 188.433C81.9786 188.433 81.9058 188.381 81.8985 187.409C81.8912 186.437 81.8475 186.189 81.8402 186.035C81.8329 185.882 81.8329 185.765 81.8329 185.765C81.8329 185.765 81.9495 185.674 81.9641 185.721C82.0056 185.857 81.9786 188.433 81.9786 188.433ZM82.1073 181.763C82.0976 181.5 82.1073 180.915 82.1073 180.915C82.1073 180.915 82.3987 182.474 82.4668 182.981C82.5348 183.487 82.5444 183.809 82.5444 183.809C82.4764 183.741 82.3696 183.371 82.2724 182.903C82.1753 182.435 82.1171 182.026 82.1073 181.763ZM82.7873 185.495C82.7581 185.407 82.6478 185.437 82.6488 185.414C82.6561 185.254 82.6197 185.071 82.6197 185.071C82.4958 184.925 82.4521 184.969 82.4521 184.969C82.4521 184.969 82.3429 184.99 82.2991 184.939C82.2554 184.888 82.2919 184.618 82.2919 184.618C82.2919 184.618 82.4958 184.662 82.5905 184.64C82.6852 184.618 82.7435 184.618 82.7435 184.618C82.7435 184.618 82.76 185.04 82.7727 185.268C82.78 185.4 82.7988 185.529 82.7873 185.495ZM82.8456 182.26C82.8067 182.533 82.661 182.786 82.661 182.757C82.661 182.727 82.3502 180.389 82.2919 180.038C82.2336 179.687 82.2627 179.268 82.1268 179.083C81.9907 178.898 81.8742 178.713 81.8742 178.567C81.8742 178.42 81.8062 176.774 81.7965 176.501C81.7868 176.228 81.7577 176.16 81.7091 176.092C81.6605 176.023 81.7091 175.926 81.7091 175.926C81.7091 175.926 82.1268 176.511 82.2336 176.793C82.3405 177.076 82.3793 177.397 82.4085 177.505C82.4376 177.612 82.4959 177.846 82.6707 178.099C82.8456 178.352 82.865 178.713 82.8067 178.937C82.7485 179.161 82.6028 179.609 82.6028 179.999C82.6028 180.389 82.8165 180.691 82.8456 181.022C82.8747 181.353 82.8844 181.987 82.8456 182.26Z" fill="white"/>
</g>
<path d="M31.216 126.491C32.272 126.491 33.1 126.611 33.7 126.851C34.324 127.067 34.96 127.391 35.608 127.823C36.136 128.159 36.544 128.327 36.832 128.327C37.048 128.327 37.216 128.207 37.336 127.967C37.456 127.703 37.552 127.295 37.624 126.743H38.452C38.332 128.135 38.272 130.583 38.272 134.087H37.444C37.3 132.143 36.736 130.511 35.752 129.191C34.792 127.847 33.388 127.175 31.54 127.175C30.244 127.175 29.188 127.571 28.372 128.363C27.556 129.131 27.148 130.127 27.148 131.351C27.148 132.263 27.352 133.055 27.76 133.727C28.192 134.399 28.732 134.975 29.38 135.455C30.028 135.935 30.952 136.547 32.152 137.291L33.196 137.939C34.708 138.875 35.896 139.703 36.76 140.423C37.648 141.119 38.356 141.923 38.884 142.835C39.412 143.747 39.676 144.815 39.676 146.039C39.676 148.223 38.956 149.915 37.516 151.115C36.076 152.291 34.252 152.879 32.044 152.879C30.892 152.879 29.944 152.759 29.2 152.519C28.48 152.279 27.784 151.955 27.112 151.547C26.584 151.211 26.176 151.043 25.888 151.043C25.672 151.043 25.504 151.175 25.384 151.439C25.264 151.679 25.168 152.075 25.096 152.627H24.268C24.364 151.307 24.412 148.427 24.412 143.987H25.24C25.408 146.411 26.008 148.379 27.04 149.891C28.072 151.403 29.656 152.159 31.792 152.159C33.088 152.159 34.192 151.763 35.104 150.971C36.016 150.155 36.472 148.955 36.472 147.371C36.472 146.027 36.016 144.887 35.104 143.951C34.216 143.015 32.8 141.959 30.856 140.783C29.44 139.919 28.288 139.151 27.4 138.479C26.536 137.807 25.828 137.003 25.276 136.067C24.724 135.107 24.448 133.991 24.448 132.719C24.448 130.703 25.096 129.167 26.392 128.111C27.688 127.031 29.296 126.491 31.216 126.491ZM61.6776 149.351C62.2536 150.839 63.0816 151.607 64.1616 151.655V152.375C63.2016 152.303 61.9176 152.267 60.3096 152.267C58.2456 152.267 56.7096 152.303 55.7016 152.375V151.655C56.6136 151.607 57.2616 151.499 57.6456 151.331C58.0536 151.139 58.2576 150.803 58.2576 150.323C58.2576 149.915 58.1136 149.351 57.8256 148.631L55.6296 142.727H46.9176L45.4416 146.543C44.9616 147.839 44.7216 148.823 44.7216 149.495C44.7216 150.239 44.9736 150.779 45.4776 151.115C46.0056 151.451 46.7976 151.631 47.8536 151.655V152.375C46.4856 152.303 45.1056 152.267 43.7136 152.267C42.6336 152.267 41.7336 152.303 41.0136 152.375V151.655C42.2136 151.367 43.1616 150.323 43.8576 148.523L52.3176 126.707H52.8936L61.6776 149.351ZM55.3416 142.007L51.3096 131.243L47.2056 142.007H55.3416ZM93.0823 127.607C92.2183 127.655 91.5823 127.751 91.1743 127.895C90.7903 128.039 90.5263 128.315 90.3823 128.723C90.2383 129.131 90.1663 129.791 90.1663 130.703V148.559C90.1663 149.471 90.2383 150.131 90.3823 150.539C90.5263 150.947 90.7903 151.223 91.1743 151.367C91.5823 151.511 92.2183 151.607 93.0823 151.655V152.375C91.9783 152.303 90.4543 152.267 88.5103 152.267C86.4463 152.267 84.9103 152.303 83.9023 152.375V151.655C84.7663 151.607 85.3903 151.511 85.7743 151.367C86.1823 151.223 86.4583 150.947 86.6023 150.539C86.7463 150.131 86.8183 149.471 86.8183 148.559V129.263L78.1423 152.555H77.5663L68.4943 129.191V148.199C68.4943 149.135 68.5663 149.831 68.7103 150.287C68.8783 150.743 69.1903 151.079 69.6463 151.295C70.1023 151.487 70.8103 151.607 71.7703 151.655V152.375C70.9063 152.303 69.6823 152.267 68.0983 152.267C66.6583 152.267 65.5423 152.303 64.7503 152.375V151.655C65.5903 151.607 66.2143 151.487 66.6223 151.295C67.0303 151.079 67.3063 150.743 67.4503 150.287C67.5943 149.807 67.6663 149.111 67.6663 148.199V130.703C67.6663 129.791 67.5943 129.131 67.4503 128.723C67.3063 128.315 67.0303 128.039 66.6223 127.895C66.2383 127.751 65.6143 127.655 64.7503 127.607V126.887C65.5423 126.959 66.6583 126.995 68.0983 126.995C69.3463 126.995 70.3663 126.959 71.1583 126.887L79.0783 147.731L86.8183 126.995H88.5103C90.4543 126.995 91.9783 126.959 93.0823 126.887V127.607ZM102.374 142.079V148.559C102.374 149.471 102.47 150.131 102.662 150.539C102.854 150.947 103.19 151.223 103.67 151.367C104.15 151.511 104.93 151.607 106.01 151.655V152.375C104.762 152.303 102.998 152.267 100.718 152.267C98.6537 152.267 97.1177 152.303 96.1097 152.375V151.655C96.9737 151.607 97.5977 151.511 97.9817 151.367C98.3897 151.223 98.6657 150.947 98.8097 150.539C98.9537 150.131 99.0257 149.471 99.0257 148.559V130.703C99.0257 129.791 98.9537 129.131 98.8097 128.723C98.6657 128.315 98.3897 128.039 97.9817 127.895C97.5977 127.751 96.9737 127.655 96.1097 127.607V126.887C97.1177 126.959 98.5817 126.995 100.502 126.995L104.39 126.959C104.846 126.935 105.362 126.923 105.938 126.923C108.746 126.923 110.894 127.571 112.382 128.867C113.87 130.139 114.614 131.855 114.614 134.015C114.614 135.335 114.314 136.607 113.714 137.831C113.138 139.031 112.142 140.039 110.726 140.855C109.334 141.671 107.474 142.079 105.146 142.079H102.374ZM105.038 127.607C104.294 127.607 103.73 127.691 103.346 127.859C102.986 128.027 102.734 128.327 102.59 128.759C102.446 129.191 102.374 129.839 102.374 130.703V141.359H104.786C107.138 141.359 108.758 140.735 109.646 139.487C110.558 138.215 111.014 136.523 111.014 134.411C111.014 132.083 110.546 130.367 109.61 129.263C108.698 128.159 107.174 127.607 105.038 127.607ZM134.592 149.351C135.168 150.839 135.996 151.607 137.076 151.655V152.375C136.116 152.303 134.832 152.267 133.224 152.267C131.16 152.267 129.624 152.303 128.616 152.375V151.655C129.528 151.607 130.176 151.499 130.56 151.331C130.968 151.139 131.172 150.803 131.172 150.323C131.172 149.915 131.028 149.351 130.74 148.631L128.544 142.727H119.832L118.356 146.543C117.876 147.839 117.636 148.823 117.636 149.495C117.636 150.239 117.888 150.779 118.392 151.115C118.92 151.451 119.712 151.631 120.768 151.655V152.375C119.4 152.303 118.02 152.267 116.628 152.267C115.548 152.267 114.648 152.303 113.928 152.375V151.655C115.128 151.367 116.076 150.323 116.772 148.523L125.232 126.707H125.808L134.592 149.351ZM128.256 142.007L124.224 131.243L120.12 142.007H128.256Z" fill="white"/>
<rect x="35" y="122" width="89" height="1" fill="white"/>
<path d="M48.146 114.186H44.438V117.732H44.258V108.012H48.146C48.71 108.012 49.166 108.078 49.514 108.21C49.874 108.33 50.15 108.498 50.342 108.714C50.534 108.93 50.666 109.188 50.738 109.488C50.81 109.788 50.846 110.112 50.846 110.46V111.792C50.846 112.14 50.81 112.464 50.738 112.764C50.666 113.052 50.534 113.304 50.342 113.52C50.15 113.724 49.874 113.886 49.514 114.006C49.166 114.126 48.71 114.186 48.146 114.186ZM44.438 114.006H48.146C48.674 114.006 49.1 113.952 49.424 113.844C49.76 113.736 50.018 113.586 50.198 113.394C50.378 113.19 50.498 112.956 50.558 112.692C50.63 112.416 50.666 112.116 50.666 111.792V110.46C50.666 110.136 50.63 109.836 50.558 109.56C50.498 109.284 50.378 109.044 50.198 108.84C50.018 108.636 49.76 108.48 49.424 108.372C49.1 108.252 48.674 108.192 48.146 108.192H44.438V114.006ZM62.5395 117.552V117.732H56.4735V108.012H62.5395V108.192H56.6535V112.71H61.0815V112.89H56.6535V117.552H62.5395ZM68.2509 117.732V108.012H72.6069C73.2189 108.012 73.7109 108.078 74.0829 108.21C74.4669 108.342 74.7609 108.522 74.9649 108.75C75.1689 108.966 75.3069 109.23 75.3789 109.542C75.4509 109.842 75.4869 110.166 75.4869 110.514V115.284C75.4869 115.632 75.4509 115.956 75.3789 116.256C75.3189 116.556 75.1869 116.814 74.9829 117.03C74.7789 117.246 74.4849 117.42 74.1009 117.552C73.7169 117.672 73.2189 117.732 72.6069 117.732H68.2509ZM72.6069 108.192H68.4309V117.552H72.6069C73.1829 117.552 73.6449 117.498 73.9929 117.39C74.3529 117.27 74.6289 117.114 74.8209 116.922C75.0129 116.718 75.1389 116.478 75.1989 116.202C75.2709 115.914 75.3069 115.608 75.3069 115.284V110.514C75.3069 110.19 75.2709 109.884 75.1989 109.596C75.1269 109.308 74.9949 109.062 74.8029 108.858C74.6109 108.654 74.3349 108.492 73.9749 108.372C73.6269 108.252 73.1709 108.192 72.6069 108.192ZM81.5366 113.898V114.456H88.5566V113.898C88.5566 113.574 88.5266 113.274 88.4666 112.998C88.4186 112.722 88.3526 112.464 88.2686 112.224L87.0266 109.29C86.8946 108.978 86.7566 108.72 86.6126 108.516C86.4686 108.3 86.2286 108.192 85.8926 108.192H84.1286C83.7686 108.192 83.5166 108.3 83.3726 108.516C83.2286 108.72 83.0966 108.972 82.9766 109.272L81.8246 112.224C81.7406 112.464 81.6686 112.722 81.6086 112.998C81.5606 113.274 81.5366 113.574 81.5366 113.898ZM88.5566 117.732V114.636H81.5366V117.732H81.3566V113.898C81.3566 113.562 81.3806 113.256 81.4286 112.98C81.4886 112.692 81.5666 112.416 81.6626 112.152L82.8146 109.2C82.9466 108.864 83.0966 108.582 83.2646 108.354C83.4326 108.126 83.7206 108.012 84.1286 108.012H85.8926C86.2886 108.012 86.5646 108.126 86.7206 108.354C86.8886 108.582 87.0446 108.87 87.1886 109.218L88.4306 112.152C88.5266 112.416 88.5986 112.692 88.6466 112.98C88.7066 113.256 88.7366 113.562 88.7366 113.898V117.732H88.5566ZM94.829 117.732V108.012H95.009V117.552H101.273V114.006H101.453V117.732H94.829ZM107.201 113.898V114.456H114.221V113.898C114.221 113.574 114.191 113.274 114.131 112.998C114.083 112.722 114.017 112.464 113.933 112.224L112.691 109.29C112.559 108.978 112.421 108.72 112.277 108.516C112.133 108.3 111.893 108.192 111.557 108.192H109.793C109.433 108.192 109.181 108.3 109.037 108.516C108.893 108.72 108.761 108.972 108.641 109.272L107.489 112.224C107.405 112.464 107.333 112.722 107.273 112.998C107.225 113.274 107.201 113.574 107.201 113.898ZM114.221 117.732V114.636H107.201V117.732H107.021V113.898C107.021 113.562 107.045 113.256 107.093 112.98C107.153 112.692 107.231 112.416 107.327 112.152L108.479 109.2C108.611 108.864 108.761 108.582 108.929 108.354C109.097 108.126 109.385 108.012 109.793 108.012H111.557C111.953 108.012 112.229 108.126 112.385 108.354C112.553 108.582 112.709 108.87 112.853 109.218L114.095 112.152C114.191 112.416 114.263 112.692 114.311 112.98C114.371 113.256 114.401 113.562 114.401 113.898V117.732H114.221Z" fill="white"/>
<path d="M44.438 114.186V113.436H43.688V114.186H44.438ZM44.438 117.732V118.482H45.188V117.732H44.438ZM44.258 117.732H43.508V118.482H44.258V117.732ZM44.258 108.012V107.262H43.508V108.012H44.258ZM49.514 108.21L49.248 108.911L49.2623 108.916L49.2768 108.921L49.514 108.21ZM50.342 108.714L50.9026 108.215L50.9026 108.215L50.342 108.714ZM50.738 109.488L50.0087 109.663V109.663L50.738 109.488ZM50.738 112.764L51.4656 112.945L51.4673 112.939L50.738 112.764ZM50.342 113.52L50.8882 114.034L50.8955 114.026L50.9026 114.018L50.342 113.52ZM49.514 114.006L49.2768 113.294L49.2695 113.297L49.514 114.006ZM44.438 114.006H43.688V114.756H44.438V114.006ZM49.424 113.844L49.1945 113.129L49.1868 113.132L49.424 113.844ZM50.198 113.394L50.7452 113.907L50.7529 113.898L50.7604 113.89L50.198 113.394ZM50.558 112.692L49.8323 112.502L49.8293 112.514L49.8267 112.525L50.558 112.692ZM50.558 109.56L49.8251 109.719L49.8284 109.734L49.8323 109.749L50.558 109.56ZM50.198 108.84L50.7604 108.343L50.7604 108.343L50.198 108.84ZM49.424 108.372L49.1635 109.075L49.1789 109.081L49.1945 109.086L49.424 108.372ZM44.438 108.192V107.442H43.688V108.192H44.438ZM48.146 113.436H44.438V114.936H48.146V113.436ZM43.688 114.186V117.732H45.188V114.186H43.688ZM44.438 116.982H44.258V118.482H44.438V116.982ZM45.008 117.732V108.012H43.508V117.732H45.008ZM44.258 108.762H48.146V107.262H44.258V108.762ZM48.146 108.762C48.6612 108.762 49.017 108.823 49.248 108.911L49.78 107.508C49.315 107.332 48.7588 107.262 48.146 107.262V108.762ZM49.2768 108.921C49.5501 109.012 49.6999 109.12 49.7814 109.212L50.9026 108.215C50.6001 107.875 50.1979 107.647 49.7512 107.498L49.2768 108.921ZM49.7814 109.212C49.8859 109.329 49.9635 109.474 50.0087 109.663L51.4673 109.313C51.3685 108.901 51.1821 108.53 50.9026 108.215L49.7814 109.212ZM50.0087 109.663C50.0653 109.899 50.096 110.163 50.096 110.46H51.596C51.596 110.06 51.5547 109.677 51.4673 109.313L50.0087 109.663ZM50.096 110.46V111.792H51.596V110.46H50.096ZM50.096 111.792C50.096 112.088 50.0653 112.353 50.0087 112.589L51.4673 112.939C51.5547 112.575 51.596 112.191 51.596 111.792H50.096ZM50.0104 112.582C49.9669 112.756 49.8908 112.898 49.7814 113.021L50.9026 114.018C51.1772 113.709 51.3651 113.348 51.4656 112.945L50.0104 112.582ZM49.7959 113.006C49.7137 113.093 49.559 113.2 49.2768 113.294L49.7512 114.717C50.189 114.571 50.5863 114.354 50.8882 114.034L49.7959 113.006ZM49.2695 113.297C49.0304 113.379 48.6662 113.436 48.146 113.436V114.936C48.7538 114.936 49.3016 114.872 49.7585 114.715L49.2695 113.297ZM44.438 114.756H48.146V113.256H44.438V114.756ZM48.146 114.756C48.7156 114.756 49.2309 114.699 49.6612 114.555L49.1868 113.132C48.9691 113.205 48.6324 113.256 48.146 113.256V114.756ZM49.6535 114.558C50.071 114.423 50.4534 114.218 50.7452 113.907L49.6508 112.881C49.5826 112.953 49.449 113.048 49.1945 113.13L49.6535 114.558ZM50.7604 113.89C51.023 113.592 51.2014 113.245 51.2893 112.858L49.8267 112.525C49.7946 112.666 49.733 112.787 49.6356 112.897L50.7604 113.89ZM51.2837 112.881C51.3738 112.535 51.416 112.171 51.416 111.792H49.916C49.916 112.06 49.8862 112.296 49.8323 112.502L51.2837 112.881ZM51.416 111.792V110.46H49.916V111.792H51.416ZM51.416 110.46C51.416 110.08 51.3738 109.716 51.2837 109.37L49.8323 109.749C49.8862 109.955 49.916 110.191 49.916 110.46H51.416ZM51.2909 109.4C51.2048 109.004 51.0283 108.647 50.7604 108.343L49.6356 109.336C49.7277 109.44 49.7912 109.563 49.8251 109.719L51.2909 109.4ZM50.7604 108.343C50.4682 108.012 50.0807 107.795 49.6535 107.658L49.1945 109.086C49.4393 109.164 49.5678 109.259 49.6356 109.336L50.7604 108.343ZM49.6845 107.668C49.2452 107.506 48.7209 107.442 48.146 107.442V108.942C48.6271 108.942 48.9548 108.998 49.1635 109.075L49.6845 107.668ZM48.146 107.442H44.438V108.942H48.146V107.442ZM43.688 108.192V114.006H45.188V108.192H43.688ZM62.5395 117.552H63.2895V116.802H62.5395V117.552ZM62.5395 117.732V118.482H63.2895V117.732H62.5395ZM56.4735 117.732H55.7235V118.482H56.4735V117.732ZM56.4735 108.012V107.262H55.7235V108.012H56.4735ZM62.5395 108.012H63.2895V107.262H62.5395V108.012ZM62.5395 108.192V108.942H63.2895V108.192H62.5395ZM56.6535 108.192V107.442H55.9035V108.192H56.6535ZM56.6535 112.71H55.9035V113.46H56.6535V112.71ZM61.0815 112.71H61.8315V111.96H61.0815V112.71ZM61.0815 112.89V113.64H61.8315V112.89H61.0815ZM56.6535 112.89V112.14H55.9035V112.89H56.6535ZM56.6535 117.552H55.9035V118.302H56.6535V117.552ZM61.7895 117.552V117.732H63.2895V117.552H61.7895ZM62.5395 116.982H56.4735V118.482H62.5395V116.982ZM57.2235 117.732V108.012H55.7235V117.732H57.2235ZM56.4735 108.762H62.5395V107.262H56.4735V108.762ZM61.7895 108.012V108.192H63.2895V108.012H61.7895ZM62.5395 107.442H56.6535V108.942H62.5395V107.442ZM55.9035 108.192V112.71H57.4035V108.192H55.9035ZM56.6535 113.46H61.0815V111.96H56.6535V113.46ZM60.3315 112.71V112.89H61.8315V112.71H60.3315ZM61.0815 112.14H56.6535V113.64H61.0815V112.14ZM55.9035 112.89V117.552H57.4035V112.89H55.9035ZM56.6535 118.302H62.5395V116.802H56.6535V118.302ZM68.2509 117.732H67.5009V118.482H68.2509V117.732ZM68.2509 108.012V107.262H67.5009V108.012H68.2509ZM74.0829 108.21L73.8321 108.916L73.8391 108.919L74.0829 108.21ZM74.9649 108.75L74.4059 109.25L74.4127 109.257L74.4196 109.265L74.9649 108.75ZM75.3789 109.542L74.6481 109.71L74.6496 109.717L75.3789 109.542ZM75.3789 116.256L74.6496 116.081L74.6462 116.094L74.6434 116.108L75.3789 116.256ZM74.9829 117.03L75.5281 117.545L74.9829 117.03ZM74.1009 117.552L74.3246 118.267L74.3347 118.264L74.3447 118.261L74.1009 117.552ZM68.4309 108.192V107.442H67.6809V108.192H68.4309ZM68.4309 117.552H67.6809V118.302H68.4309V117.552ZM73.9929 117.39L74.2152 118.106L74.2226 118.104L74.23 118.101L73.9929 117.39ZM74.8209 116.922L75.3512 117.452L75.3592 117.444L75.367 117.436L74.8209 116.922ZM75.1989 116.202L74.4713 116.02L74.4685 116.031L74.466 116.042L75.1989 116.202ZM75.1989 109.596L74.4713 109.777V109.777L75.1989 109.596ZM74.8029 108.858L75.349 108.344L74.8029 108.858ZM73.9749 108.372L73.7304 109.081L73.7377 109.083L73.9749 108.372ZM69.0009 117.732V108.012H67.5009V117.732H69.0009ZM68.2509 108.762H72.6069V107.262H68.2509V108.762ZM72.6069 108.762C73.1752 108.762 73.5723 108.824 73.8321 108.916L74.3337 107.503C73.8495 107.331 73.2626 107.262 72.6069 107.262V108.762ZM73.8391 108.919C74.1402 109.022 74.3108 109.143 74.4059 109.25L75.5238 108.249C75.2109 107.9 74.7936 107.661 74.3267 107.5L73.8391 108.919ZM74.4196 109.265C74.525 109.376 74.6036 109.518 74.6481 109.71L76.1097 109.373C76.0101 108.941 75.8127 108.555 75.5101 108.235L74.4196 109.265ZM74.6496 109.717C74.7062 109.953 74.7369 110.217 74.7369 110.514H76.2369C76.2369 110.114 76.1955 109.731 76.1082 109.367L74.6496 109.717ZM74.7369 110.514V115.284H76.2369V110.514H74.7369ZM74.7369 115.284C74.7369 115.58 74.7062 115.845 74.6496 116.081L76.1082 116.431C76.1955 116.067 76.2369 115.683 76.2369 115.284H74.7369ZM74.6434 116.108C74.6102 116.275 74.542 116.404 74.4376 116.515L75.5281 117.545C75.8318 117.223 76.0276 116.836 76.1143 116.403L74.6434 116.108ZM74.4376 116.515C74.3418 116.616 74.1664 116.736 73.8571 116.842L74.3447 118.261C74.8034 118.103 75.216 117.875 75.5281 117.545L74.4376 116.515ZM73.8772 116.836C73.5929 116.925 73.1782 116.982 72.6069 116.982V118.482C73.2595 118.482 73.8409 118.419 74.3246 118.267L73.8772 116.836ZM72.6069 116.982H68.2509V118.482H72.6069V116.982ZM72.6069 107.442H68.4309V108.942H72.6069V107.442ZM67.6809 108.192V117.552H69.1809V108.192H67.6809ZM68.4309 118.302H72.6069V116.802H68.4309V118.302ZM72.6069 118.302C73.2199 118.302 73.766 118.245 74.2152 118.106L73.7706 116.673C73.5238 116.75 73.1459 116.802 72.6069 116.802V118.302ZM74.23 118.101C74.6592 117.958 75.0508 117.752 75.3512 117.452L74.2905 116.391C74.2069 116.475 74.0465 116.581 73.7557 116.678L74.23 118.101ZM75.367 117.436C75.6531 117.132 75.8431 116.769 75.9318 116.361L74.466 116.042C74.4347 116.186 74.3726 116.303 74.2747 116.408L75.367 117.436ZM75.9265 116.383C76.0146 116.031 76.0569 115.663 76.0569 115.284H74.5569C74.5569 115.552 74.5271 115.796 74.4713 116.02L75.9265 116.383ZM76.0569 115.284V110.514H74.5569V115.284H76.0569ZM76.0569 110.514C76.0569 110.134 76.0146 109.766 75.9265 109.414L74.4713 109.777C74.5271 110.001 74.5569 110.245 74.5569 110.514H76.0569ZM75.9265 109.414C75.8253 109.009 75.6342 108.647 75.349 108.344L74.2567 109.372C74.3556 109.477 74.4284 109.606 74.4713 109.777L75.9265 109.414ZM75.349 108.344C75.0472 108.023 74.6499 107.806 74.212 107.66L73.7377 109.083C74.0199 109.177 74.1746 109.284 74.2567 109.372L75.349 108.344ZM74.2194 107.663C73.7625 107.505 73.2146 107.442 72.6069 107.442V108.942C73.1271 108.942 73.4912 108.998 73.7304 109.081L74.2194 107.663ZM81.5366 114.456H80.7866V115.206H81.5366V114.456ZM88.5566 114.456V115.206H89.3066V114.456H88.5566ZM88.4666 112.998L87.7277 113.126L87.7303 113.142L87.7337 113.157L88.4666 112.998ZM88.2686 112.224L88.9765 111.976L88.9686 111.953L88.9592 111.931L88.2686 112.224ZM87.0266 109.29L86.3358 109.582L86.3359 109.582L87.0266 109.29ZM86.6126 108.516L85.9885 108.932L85.9941 108.94L85.9998 108.948L86.6126 108.516ZM83.3726 108.516L83.9853 108.948L83.9911 108.94L83.9966 108.932L83.3726 108.516ZM82.9766 109.272L82.2802 108.993L82.2779 108.999L82.9766 109.272ZM81.8246 112.224L81.1259 111.951L81.1211 111.963L81.1167 111.976L81.8246 112.224ZM81.6086 112.998L80.8757 112.838L80.8723 112.854L80.8697 112.869L81.6086 112.998ZM88.5566 117.732H87.8066V118.482H88.5566V117.732ZM88.5566 114.636H89.3066V113.886H88.5566V114.636ZM81.5366 114.636V113.886H80.7866V114.636H81.5366ZM81.5366 117.732V118.482H82.2866V117.732H81.5366ZM81.3566 117.732H80.6066V118.482H81.3566V117.732ZM81.4286 112.98L80.6943 112.827L80.6918 112.839L80.6897 112.851L81.4286 112.98ZM81.6626 112.152L80.9639 111.879L80.9607 111.887L80.9577 111.895L81.6626 112.152ZM82.8146 109.2L82.1165 108.925L82.1159 108.927L82.8146 109.2ZM83.2646 108.354L83.8684 108.798V108.798L83.2646 108.354ZM86.7206 108.354L86.1016 108.777L86.109 108.788L86.1168 108.798L86.7206 108.354ZM87.1886 109.218L86.4955 109.504L86.4979 109.51L87.1886 109.218ZM88.4306 112.152L89.1354 111.895L89.1288 111.877L89.1212 111.859L88.4306 112.152ZM88.6466 112.98L87.9068 113.103L87.9098 113.121L87.9137 113.139L88.6466 112.98ZM88.7366 117.732V118.482H89.4866V117.732H88.7366ZM80.7866 113.898V114.456H82.2866V113.898H80.7866ZM81.5366 115.206H88.5566V113.706H81.5366V115.206ZM89.3066 114.456V113.898H87.8066V114.456H89.3066ZM89.3066 113.898C89.3066 113.528 89.2723 113.174 89.1994 112.838L87.7337 113.157C87.7808 113.374 87.8066 113.619 87.8066 113.898H89.3066ZM89.2055 112.869C89.1511 112.557 89.0753 112.258 88.9765 111.976L87.5607 112.471C87.6298 112.669 87.686 112.887 87.7277 113.126L89.2055 112.869ZM88.9592 111.931L87.7172 108.997L86.3359 109.582L87.5779 112.516L88.9592 111.931ZM87.7173 108.997C87.5712 108.652 87.409 108.343 87.2253 108.083L85.9998 108.948C86.1042 109.096 86.2179 109.303 86.3358 109.582L87.7173 108.997ZM87.2366 108.1C86.9132 107.614 86.3967 107.442 85.8926 107.442V108.942C85.9827 108.942 86.0164 108.956 86.0168 108.957C86.0169 108.957 86.0153 108.956 86.0126 108.954C86.0098 108.952 86.0065 108.95 86.0029 108.947C85.9952 108.94 85.9904 108.934 85.9885 108.932L87.2366 108.1ZM85.8926 107.442H84.1286V108.942H85.8926V107.442ZM84.1286 107.442C83.6237 107.442 83.0816 107.6 82.7485 108.1L83.9966 108.932C83.9919 108.939 83.9847 108.947 83.9757 108.954C83.9671 108.961 83.962 108.963 83.965 108.962C83.9734 108.958 84.0199 108.942 84.1286 108.942V107.442ZM82.7598 108.083C82.5738 108.347 82.416 108.654 82.2802 108.993L83.6729 109.55C83.7772 109.29 83.8833 109.093 83.9853 108.948L82.7598 108.083ZM82.2779 108.999L81.1259 111.951L82.5232 112.496L83.6752 109.544L82.2779 108.999ZM81.1167 111.976C81.0215 112.248 80.9415 112.536 80.8757 112.838L82.3414 113.157C82.3956 112.908 82.4596 112.679 82.5325 112.471L81.1167 111.976ZM80.8697 112.869C80.8132 113.193 80.7866 113.537 80.7866 113.898H82.2866C82.2866 113.61 82.3079 113.354 82.3475 113.126L80.8697 112.869ZM89.3066 117.732V114.636H87.8066V117.732H89.3066ZM88.5566 113.886H81.5366V115.386H88.5566V113.886ZM80.7866 114.636V117.732H82.2866V114.636H80.7866ZM81.5366 116.982H81.3566V118.482H81.5366V116.982ZM82.1066 117.732V113.898H80.6066V117.732H82.1066ZM82.1066 113.898C82.1066 113.596 82.1281 113.334 82.1675 113.108L80.6897 112.851C80.633 113.177 80.6066 113.527 80.6066 113.898H82.1066ZM82.1628 113.133C82.2158 112.878 82.2842 112.637 82.3674 112.408L80.9577 111.895C80.8489 112.194 80.7613 112.505 80.6943 112.827L82.1628 113.133ZM82.3612 112.424L83.5132 109.472L82.1159 108.927L80.9639 111.879L82.3612 112.424ZM83.5126 109.474C83.6269 109.183 83.748 108.962 83.8684 108.798L82.6608 107.909C82.4452 108.201 82.2662 108.544 82.1165 108.925L83.5126 109.474ZM83.8684 108.798C83.8612 108.808 83.8567 108.805 83.8826 108.794C83.9157 108.781 83.9907 108.762 84.1286 108.762V107.262C83.5932 107.262 83.0251 107.414 82.6608 107.909L83.8684 108.798ZM84.1286 108.762H85.8926V107.262H84.1286V108.762ZM85.8926 108.762C86.0227 108.762 86.0874 108.781 86.1102 108.79C86.1203 108.794 86.1205 108.796 86.1155 108.792C86.1102 108.788 86.105 108.782 86.1016 108.777L87.3395 107.93C86.9893 107.418 86.421 107.262 85.8926 107.262V108.762ZM86.1168 108.798C86.2392 108.965 86.3677 109.195 86.4956 109.504L87.8816 108.931C87.7215 108.544 87.538 108.199 87.3244 107.909L86.1168 108.798ZM86.4979 109.51L87.7399 112.444L89.1212 111.859L87.8792 108.925L86.4979 109.51ZM87.7257 112.408C87.8054 112.627 87.866 112.858 87.9068 113.103L89.3864 112.856C89.3311 112.525 89.2477 112.204 89.1354 111.895L87.7257 112.408ZM87.9137 113.139C87.9604 113.354 87.9866 113.605 87.9866 113.898H89.4866C89.4866 113.518 89.4527 113.157 89.3794 112.82L87.9137 113.139ZM87.9866 113.898V117.732H89.4866V113.898H87.9866ZM88.7366 116.982H88.5566V118.482H88.7366V116.982ZM94.829 117.732H94.079V118.482H94.829V117.732ZM94.829 108.012V107.262H94.079V108.012H94.829ZM95.009 108.012H95.759V107.262H95.009V108.012ZM95.009 117.552H94.259V118.302H95.009V117.552ZM101.273 117.552V118.302H102.023V117.552H101.273ZM101.273 114.006V113.256H100.523V114.006H101.273ZM101.453 114.006H102.203V113.256H101.453V114.006ZM101.453 117.732V118.482H102.203V117.732H101.453ZM95.579 117.732V108.012H94.079V117.732H95.579ZM94.829 108.762H95.009V107.262H94.829V108.762ZM94.259 108.012V117.552H95.759V108.012H94.259ZM95.009 118.302H101.273V116.802H95.009V118.302ZM102.023 117.552V114.006H100.523V117.552H102.023ZM101.273 114.756H101.453V113.256H101.273V114.756ZM100.703 114.006V117.732H102.203V114.006H100.703ZM101.453 116.982H94.829V118.482H101.453V116.982ZM107.201 114.456H106.451V115.206H107.201V114.456ZM114.221 114.456V115.206H114.971V114.456H114.221ZM114.131 112.998L113.392 113.126L113.394 113.142L113.398 113.157L114.131 112.998ZM113.933 112.224L114.641 111.976L114.633 111.953L114.623 111.931L113.933 112.224ZM112.691 109.29L112 109.582L112 109.582L112.691 109.29ZM112.277 108.516L111.653 108.932L111.658 108.94L111.664 108.948L112.277 108.516ZM109.037 108.516L109.649 108.948L109.655 108.94L109.661 108.932L109.037 108.516ZM108.641 109.272L107.944 108.993L107.942 108.999L108.641 109.272ZM107.489 112.224L106.79 111.951L106.785 111.963L106.781 111.976L107.489 112.224ZM107.273 112.998L106.54 112.838L106.536 112.854L106.534 112.869L107.273 112.998ZM114.221 117.732H113.471V118.482H114.221V117.732ZM114.221 114.636H114.971V113.886H114.221V114.636ZM107.201 114.636V113.886H106.451V114.636H107.201ZM107.201 117.732V118.482H107.951V117.732H107.201ZM107.021 117.732H106.271V118.482H107.021V117.732ZM107.093 112.98L106.358 112.827L106.356 112.839L106.354 112.851L107.093 112.98ZM107.327 112.152L106.628 111.879L106.625 111.887L106.622 111.895L107.327 112.152ZM108.479 109.2L107.781 108.925L107.78 108.927L108.479 109.2ZM108.929 108.354L109.532 108.798V108.798L108.929 108.354ZM112.385 108.354L111.766 108.777L111.773 108.788L111.781 108.798L112.385 108.354ZM112.853 109.218L112.16 109.504L112.162 109.51L112.853 109.218ZM114.095 112.152L114.799 111.895L114.793 111.877L114.785 111.859L114.095 112.152ZM114.311 112.98L113.571 113.103L113.574 113.121L113.578 113.139L114.311 112.98ZM114.401 117.732V118.482H115.151V117.732H114.401ZM106.451 113.898V114.456H107.951V113.898H106.451ZM107.201 115.206H114.221V113.706H107.201V115.206ZM114.971 114.456V113.898H113.471V114.456H114.971ZM114.971 113.898C114.971 113.528 114.936 113.174 114.864 112.838L113.398 113.157C113.445 113.374 113.471 113.619 113.471 113.898H114.971ZM114.87 112.869C114.815 112.557 114.739 112.258 114.641 111.976L113.225 112.471C113.294 112.669 113.35 112.887 113.392 113.126L114.87 112.869ZM114.623 111.931L113.381 108.997L112 109.582L113.242 112.516L114.623 111.931ZM113.381 108.997C113.235 108.652 113.073 108.343 112.889 108.083L111.664 108.948C111.768 109.096 111.882 109.303 112 109.582L113.381 108.997ZM112.901 108.1C112.577 107.614 112.061 107.442 111.557 107.442V108.942C111.647 108.942 111.68 108.956 111.681 108.957C111.681 108.957 111.679 108.956 111.677 108.954C111.674 108.952 111.671 108.95 111.667 108.947C111.659 108.94 111.654 108.934 111.653 108.932L112.901 108.1ZM111.557 107.442H109.793V108.942H111.557V107.442ZM109.793 107.442C109.288 107.442 108.746 107.6 108.413 108.1L109.661 108.932C109.656 108.939 109.649 108.947 109.64 108.954C109.631 108.961 109.626 108.963 109.629 108.962C109.637 108.958 109.684 108.942 109.793 108.942V107.442ZM108.424 108.083C108.238 108.347 108.08 108.654 107.944 108.993L109.337 109.55C109.441 109.29 109.547 109.093 109.649 108.948L108.424 108.083ZM107.942 108.999L106.79 111.951L108.187 112.496L109.339 109.544L107.942 108.999ZM106.781 111.976C106.686 112.248 106.606 112.536 106.54 112.838L108.006 113.157C108.06 112.908 108.124 112.679 108.197 112.471L106.781 111.976ZM106.534 112.869C106.477 113.193 106.451 113.537 106.451 113.898H107.951C107.951 113.61 107.972 113.354 108.012 113.126L106.534 112.869ZM114.971 117.732V114.636H113.471V117.732H114.971ZM114.221 113.886H107.201V115.386H114.221V113.886ZM106.451 114.636V117.732H107.951V114.636H106.451ZM107.201 116.982H107.021V118.482H107.201V116.982ZM107.771 117.732V113.898H106.271V117.732H107.771ZM107.771 113.898C107.771 113.596 107.792 113.334 107.832 113.108L106.354 112.851C106.297 113.177 106.271 113.527 106.271 113.898H107.771ZM107.827 113.133C107.88 112.878 107.948 112.637 108.031 112.408L106.622 111.895C106.513 112.194 106.425 112.505 106.358 112.827L107.827 113.133ZM108.025 112.424L109.177 109.472L107.78 108.927L106.628 111.879L108.025 112.424ZM109.177 109.474C109.291 109.183 109.412 108.962 109.532 108.798L108.325 107.909C108.109 108.201 107.93 108.544 107.781 108.925L109.177 109.474ZM109.532 108.798C109.525 108.808 109.521 108.805 109.547 108.794C109.58 108.781 109.655 108.762 109.793 108.762V107.262C109.257 107.262 108.689 107.414 108.325 107.909L109.532 108.798ZM109.793 108.762H111.557V107.262H109.793V108.762ZM111.557 108.762C111.687 108.762 111.751 108.781 111.774 108.79C111.784 108.794 111.785 108.796 111.78 108.792C111.774 108.788 111.769 108.782 111.766 108.777L113.004 107.93C112.653 107.418 112.085 107.262 111.557 107.262V108.762ZM111.781 108.798C111.903 108.965 112.032 109.195 112.16 109.504L113.546 108.931C113.386 108.544 113.202 108.199 112.988 107.909L111.781 108.798ZM112.162 109.51L113.404 112.444L114.785 111.859L113.543 108.925L112.162 109.51ZM113.39 112.408C113.469 112.627 113.53 112.858 113.571 113.103L115.05 112.856C114.995 112.525 114.912 112.204 114.799 111.895L113.39 112.408ZM113.578 113.139C113.624 113.354 113.651 113.605 113.651 113.898H115.151C115.151 113.518 115.117 113.157 115.044 112.82L113.578 113.139ZM113.651 113.898V117.732H115.151V113.898H113.651ZM114.401 116.982H114.221V118.482H114.401V116.982Z" fill="white"/>
<path fill-rule="evenodd" clip-rule="evenodd" d="M157 102.992V91.9727H149.129V98.6328H145.98V89.0664H141.016V84.9492H139.441L138.23 82.043L137.141 84.9492H135.93V93.4258H134.234V69.6914L132.902 69.0859H126L124.184 69.6914V97.4219H116.797V100.207H111.59V101.781H65.9375V84.707H66.543V83.9805H65.0898V65.9375H64.7266L64.2422 67.1484L62.4258 55.4023L60.4883 67.1484L60.125 65.9375H59.6406V81.4375C58.793 80.3477 57.7031 79.7422 56.6133 79.3789V77.4414H55.8867V76.4727H55.4023V77.4414H54.6758V79.3789C53.3438 79.8633 52.9805 80.1055 51.7695 81.4375V65.9375H51.2852L50.9219 67.3906L48.9844 55.4023L47.0469 67.3906L46.6836 65.9375H46.1992L46.3203 83.9805H44.8672V84.4648H45.3516V101.418H43.1719V91.2461L16.168 91.125V101.297H14.8359V89.0664H9.26562V100.207H7.08594V97.9062H6.72266V94.8789H2.48438V97.7852H2V102.992H157ZM40.75 93.668H18.7109V94.8789H40.75V93.668ZM18.7109 100.207H40.75V100.934H18.7109V100.207ZM55.6445 91.0039C56.7815 91.0039 57.7031 90.0822 57.7031 88.9453C57.7031 87.8084 56.7815 86.8867 55.6445 86.8867C54.5076 86.8867 53.5859 87.8084 53.5859 88.9453C53.5859 90.0822 54.5076 91.0039 55.6445 91.0039Z" fill="black"/>
<path fill-rule="evenodd" clip-rule="evenodd" d="M77.6929 95.1211L84.9492 71.75L84.7544 70.8525L76.7642 95.1211H77.6929ZM75.7443 95.1211H71.2074L84.2661 68.6034L84.3491 68.9857L75.7443 95.1211ZM70.1276 95.1211L83.9357 67.0816L83.7477 66.2159L65.6736 95.1211H70.1276ZM64.4844 96.0898H70.4802L70.6815 96.189L70.7304 96.0898H77.3921L75.625 101.781H81.5586L82.8695 96.0898H89.8209L91.0039 101.781H96.9375L95.3081 96.0898H97.1154L99.3194 102.848L100.24 102.547L98.1344 96.0898H102.452L105.745 102.876L106.617 102.453L103.529 96.0898H108.304L112.34 102.521L113.16 102.006L109.448 96.0898H113.522L117.468 101.601L118.256 101.037L114.713 96.0898H118.532L120.953 99.1123L121.709 98.5067L119.773 96.0898H124.077L125.123 97.2772L125.85 96.6365L125.031 95.7076V95.1211H124.514L91.5644 57.7461L91.7947 56.7459L125.303 92.7763L126.012 92.1166L92.0573 55.6057L92.5781 53.3438H90.5195L89.4465 56.8555H83.8661L82.8906 53.3438H80.9531L81.3989 55.397L57.5917 80.7186L58.2975 81.3822L81.6483 56.546L81.9694 58.0249L59.5025 84.1831L60.2374 84.8142L82.2271 59.2118L82.5173 60.5484L60.8515 86.9061L61.5999 87.5212L82.7793 61.7552L82.9273 62.4368L63.0313 89.9744L63.8165 90.5418L83.2034 63.7088L83.4533 64.8596L64.531 95.1211H64.4844L64.4843 95.1958L64.4844 96.0898ZM101.982 95.1211H97.8184L89.2865 68.9606L101.982 95.1211ZM88.3398 71.75L88.6864 70.245L96.7994 95.1211H95.0308L88.3398 71.75ZM103.059 95.1211H107.696L89.5989 66.2822L89.4266 67.0305L103.059 95.1211ZM112.828 95.1211H108.84L89.9059 64.9489L90.226 63.5587L112.828 95.1211ZM114.019 95.1211H117.756L90.7277 61.3799L90.5159 62.2996L114.019 95.1211ZM123.223 95.1211H118.997L91.0048 60.1764L91.297 58.9076L123.223 95.1211ZM83.0927 95.1211H89.6195L86.5234 80.2266L83.0927 95.1211ZM89.1505 57.8242H84.1352L84.9425 60.7305H88.2625L89.1505 57.8242ZM86.5234 66.4219L85.2789 61.9414H87.8925L86.5234 66.4219Z" fill="black"/>
<defs>
<clipPath id="clip0">
<rect x="69" y="156.758" width="21.3125" height="33.1797" fill="white"/>
</clipPath>
</defs>
</svg>
